<svg width="111" height="108" viewBox="0 0 111 108" fill="none" xmlns="http://www.w3.org/2000/svg" aria-hidden="true">
<path fill-rule="evenodd" clip-rule="evenodd" d="M89.7215 19.5297C100.833 23.7339 108.652 33.7497 110.545 44.1982C112.438 54.6468 108.322 65.5282 100.174 73.2564C92.026 80.9846 79.8449 85.6216 67.3345 88.7129C54.7419 91.866 41.82 93.4735 31.9434 90.1967C22.0668 86.9199 15.2355 78.6971 9.3095 70.3506C3.38354 62.0659 -1.63706 53.6576 0.502868 46.4858C2.7251 39.314 12.0256 33.4405 21.4083 29.0509C30.7911 24.6613 40.0916 21.6936 52.0258 19.4061C63.96 17.0567 78.528 15.3874 89.7215 19.5297Z" fill="#F6F6F6"/>
<path fill-rule="evenodd" clip-rule="evenodd" d="M23.378 18.8992C22.6657 18.8992 22.0862 18.2936 22.0862 17.5492C22.0862 16.8048 22.6657 16.1992 23.378 16.1992C24.0904 16.1992 24.6699 16.8048 24.6699 17.5492C24.6699 18.2936 24.0904 18.8992 23.378 18.8992Z" fill="#CACAFB"/>
<path fill-rule="evenodd" clip-rule="evenodd" d="M10.4593 94.5008C9.74701 94.5008 9.16748 93.8952 9.16748 93.1508C9.16748 92.4063 9.74701 91.8008 10.4593 91.8008C11.1717 91.8008 11.7512 92.4063 11.7512 93.1508C11.7512 93.8952 11.1717 94.5008 10.4593 94.5008Z" fill="#CACAFB"/>
<path fill-rule="evenodd" clip-rule="evenodd" d="M100.89 86.3992C100.178 86.3992 99.5981 85.7936 99.5981 85.0492C99.5981 84.3048 100.178 83.6992 100.89 83.6992C101.602 83.6992 102.182 84.3048 102.182 85.0492C102.182 85.7936 101.602 86.3992 100.89 86.3992Z" fill="#CACAFB"/>
<path fill-rule="evenodd" clip-rule="evenodd" d="M80.2201 16.2C79.5078 16.2 78.9282 15.5944 78.9282 14.85C78.9282 14.1055 79.5078 13.5 80.2201 13.5C80.9324 13.5 81.512 14.1055 81.512 14.85C81.512 15.5944 80.9324 16.2 80.2201 16.2Z" fill="#CACAFB"/>
<path d="M58.4496 13.5C79.854 13.5 97.2056 31.6325 97.2056 54C97.2056 54.7456 96.6272 55.35 95.9138 55.35C95.2003 55.35 94.6219 54.7456 94.6219 54C94.6219 33.1236 78.427 16.2 58.4496 16.2C38.4723 16.2 22.2774 33.1236 22.2774 54C22.2774 74.8764 38.4723 91.8 58.4496 91.8C72.8601 91.8 85.7173 82.9136 91.4935 69.4012C91.7845 68.7205 92.5485 68.4151 93.1999 68.7192C93.8514 69.0233 94.1436 69.8217 93.8526 70.5025C87.6642 84.9788 73.8886 94.5 58.4496 94.5C37.0453 94.5 19.6937 76.3675 19.6937 54C19.6937 31.6325 37.0453 13.5 58.4496 13.5Z" fill="#E1000F"/>
<path d="M95.9138 65.6C95.9138 66.4008 95.2925 67.05 94.5262 67.05C93.7599 67.05 93.1386 66.4008 93.1386 65.6C93.1386 64.7992 93.7599 64.15 94.5262 64.15C95.2925 64.15 95.9138 64.7992 95.9138 65.6Z" fill="#E1000F"/>
<path d="M22.7231 28.3933C22.1554 27.9417 21.3449 28.0565 20.9127 28.6497C16.5467 34.6429 14.1434 41.9576 14.1434 49.65C14.1434 50.3956 14.7218 51 15.4353 51C16.1488 51 16.7272 50.3956 16.7272 49.65C16.7272 42.5537 18.942 35.8122 22.9685 30.2852C23.4007 29.692 23.2908 28.8449 22.7231 28.3933Z" fill="#E1000F"/>
<path fill-rule="evenodd" clip-rule="evenodd" d="M76.34 47.1371C75.423 35.6383 69.2661 29.6992 58.2584 29.6992C47.2506 29.6992 41.0937 35.6383 40.1767 47.1371C40.1073 48.0072 40.8347 48.7163 41.6605 48.5835L44.0478 48.1997V48.7896C43.1231 48.9758 42.4415 49.2335 41.9637 49.6058C40.752 50.5498 40.1721 52.0596 40.1721 53.9992C40.1721 57.4448 42.0424 59.3992 45.3396 59.3992C45.4802 59.3992 45.6156 59.3757 45.7424 59.3323C47.1167 62.1171 49.2472 64.3927 51.8359 65.8278C51.8118 65.9308 51.799 66.0385 51.799 66.1492C51.799 67.9024 50.9995 69.4605 49.7607 70.447C49.7407 70.4618 49.7212 70.4771 49.7021 70.4929C48.8437 71.1567 47.7815 71.5492 46.6316 71.5492H44.0478L43.7572 71.5548C39.611 71.7145 36.2966 75.2774 36.2966 79.6492C36.2966 80.3948 36.875 80.9992 37.5885 80.9992C38.302 80.9992 38.8804 80.3948 38.8804 79.6492C38.8804 76.6669 41.1939 74.2492 44.0478 74.2492H46.6316L46.9221 74.2436C48.0027 74.202 49.0267 73.9293 49.9503 73.4713C51.3353 75.7492 53.8898 76.4446 57.2798 75.5589C57.972 75.3781 58.3928 74.6451 58.2198 73.9218C58.0467 73.1985 57.3453 72.7587 56.6532 72.9395C54.2377 73.5706 52.8269 73.229 52.0743 71.9164C53.3385 70.6134 54.1764 68.8599 54.3495 66.905C55.5908 67.292 56.902 67.4992 58.2584 67.4992C59.6147 67.4992 60.9259 67.292 62.1672 66.905C62.5232 70.9249 65.69 74.0933 69.5946 74.2436L69.8851 74.2492H72.4689C75.3228 74.2492 77.6363 76.6669 77.6363 79.6492C77.6363 80.3948 78.2147 80.9992 78.9282 80.9992C79.6417 80.9992 80.2201 80.3948 80.2201 79.6492C80.2201 75.2774 76.9057 71.7145 72.7595 71.5548L72.4689 71.5492H69.8851C67.0312 71.5492 64.7177 69.1316 64.7177 66.1492C64.7177 66.0385 64.7049 65.9308 64.6808 65.8278C67.2695 64.3927 69.4 62.1172 70.7743 59.3323C70.901 59.3757 71.0364 59.3992 71.177 59.3992C74.4742 59.3992 76.3445 57.4448 76.3445 53.9992C76.3445 52.0596 75.7645 50.5498 74.5529 49.6058C73.8997 49.0969 72.8658 48.802 71.3507 48.6113C71.2954 48.6036 71.2391 48.5994 71.1818 48.5992L71.1797 48.5991C71.055 48.5987 70.9336 48.6171 70.8182 48.652C70.6321 48.7081 70.4632 48.8068 70.3219 48.9372C70.072 49.1681 69.9082 49.4984 69.8874 49.869C69.8854 49.9028 69.8847 49.9365 69.8851 49.97V51.9742L69.8803 52.3465C69.7016 59.2708 64.5528 64.7992 58.2584 64.7992C51.8515 64.7992 46.6316 59.0716 46.6316 51.9742V47.7843L58.4548 45.8835L58.6072 45.8491C58.9557 45.747 59.2499 45.4956 59.4138 45.153L60.7057 42.453L60.7653 42.3081C60.9859 41.6727 60.7205 40.9514 60.128 40.6417L59.9893 40.5795C59.3813 40.3489 58.691 40.6262 58.3947 41.2455L57.4006 43.3207L42.9368 45.6454L42.9604 45.4716C44.2265 36.6531 49.2196 32.3992 58.2584 32.3992L58.7223 32.403C67.3148 32.5447 72.1409 36.657 73.4875 45.0195L73.554 45.4659L65.031 43.2395L64.8827 43.2102C64.2413 43.123 63.6251 43.5501 63.4644 44.2218C63.2913 44.9451 63.7122 45.6781 64.4044 45.8589L74.7393 48.5589L74.8902 48.5888C75.691 48.6974 76.4092 48.0048 76.34 47.1371ZM44.0478 51.5559C43.7738 51.6311 43.5909 51.7058 43.5081 51.7704C43.0238 52.1477 42.7558 52.8453 42.7558 53.9992C42.7558 55.7162 43.3065 56.5002 44.7084 56.6654C44.3143 55.3059 44.087 53.8659 44.0525 52.3743L44.0478 51.9742V51.5559ZM73.7607 53.9992C73.7607 55.7162 73.2101 56.5002 71.8083 56.6654C72.2375 55.1847 72.4689 53.6085 72.4689 51.9742V51.5559C72.7428 51.6311 72.9257 51.7058 73.0085 51.7704C73.4927 52.1477 73.7607 52.8453 73.7607 53.9992Z" fill="#000091"/>
</svg>
