<svg width="111" height="108" viewBox="0 0 111 108" fill="none" xmlns="http://www.w3.org/2000/svg" aria-hidden="true">
<path fill-rule="evenodd" clip-rule="evenodd" d="M89.7215 21.5297C100.833 25.7339 108.652 35.7497 110.545 46.1982C112.438 56.6468 108.322 67.5282 100.174 75.2564C92.026 82.9846 79.8449 87.6216 67.3345 90.7129C54.7419 93.866 41.82 95.4735 31.9434 92.1967C22.0668 88.9199 15.2355 80.6971 9.3095 72.3506C3.38354 64.0659 -1.63706 55.6576 0.502868 48.4858C2.7251 41.314 12.0256 35.4405 21.4083 31.0509C30.7911 26.6613 40.0916 23.6936 52.0258 21.4061C63.96 19.0567 78.528 17.3874 89.7215 21.5297Z" fill="#F6F6F6"/>
<path fill-rule="evenodd" clip-rule="evenodd" d="M97.3069 24.2996C96.5945 24.2996 96.015 23.694 96.015 22.9496C96.015 22.2052 96.5945 21.5996 97.3069 21.5996C98.0192 21.5996 98.5988 22.2052 98.5988 22.9496C98.5988 23.694 98.0192 24.2996 97.3069 24.2996Z" fill="#CACAFB"/>
<path fill-rule="evenodd" clip-rule="evenodd" d="M12.0431 24.2996C11.3308 24.2996 10.7512 23.694 10.7512 22.9496C10.7512 22.2052 11.3308 21.5996 12.0431 21.5996C12.7554 21.5996 13.335 22.2052 13.335 22.9496C13.335 23.694 12.7554 24.2996 12.0431 24.2996Z" fill="#CACAFB"/>
<path fill-rule="evenodd" clip-rule="evenodd" d="M17.2106 91.7996C16.4982 91.7996 15.9187 91.194 15.9187 90.4496C15.9187 89.7052 16.4982 89.0996 17.2106 89.0996C17.9229 89.0996 18.5025 89.7052 18.5025 90.4496C18.5025 91.194 17.9229 91.7996 17.2106 91.7996Z" fill="#CACAFB"/>
<path fill-rule="evenodd" clip-rule="evenodd" d="M27.5455 8.10039C26.8332 8.10039 26.2537 7.49478 26.2537 6.75039C26.2537 6.00594 26.8332 5.40039 27.5455 5.40039C28.2579 5.40039 28.8374 6.00594 28.8374 6.75039C28.8374 7.49478 28.2579 8.10039 27.5455 8.10039Z" fill="#CACAFB"/>
<path fill-rule="evenodd" clip-rule="evenodd" d="M74.0531 105.3C73.3408 105.3 72.7612 104.694 72.7612 103.95C72.7612 103.205 73.3408 102.6 74.0531 102.6C74.7654 102.6 75.345 103.205 75.345 103.95C75.345 104.694 74.7654 105.3 74.0531 105.3Z" fill="#CACAFB"/>
<path d="M72.8086 54.9875C73 54.2692 73.7124 53.8491 74.3997 54.0491C77.4221 54.9286 79.7392 57.4057 80.3526 60.4772C80.4984 61.2071 80.0503 61.9222 79.3519 62.0746C78.6535 62.2269 77.9691 61.7587 77.8233 61.0288C77.4118 58.9681 75.8184 57.2646 73.7066 56.6501C73.0193 56.4501 72.6172 55.7057 72.8086 54.9875Z" fill="#E1000F"/>
<path fill-rule="evenodd" clip-rule="evenodd" d="M59.8425 62.0996C59.8425 54.6541 65.6366 48.5996 72.7613 48.5996C79.886 48.5996 85.68 54.6541 85.68 62.0996C85.68 65.5639 84.4255 68.7272 82.3662 71.1195L89.9821 84.9042C91.0524 86.8413 90.4172 89.3182 88.5636 90.4366C86.7761 91.5151 84.5082 90.9364 83.3889 89.1569L83.2694 88.9542L75.6969 75.2482C74.7535 75.4781 73.7708 75.5996 72.7613 75.5996C65.6367 75.5996 59.8425 69.5447 59.8425 62.0996ZM78.1851 74.3519L85.507 87.6042C85.8637 88.2499 86.6538 88.4711 87.2717 88.0984C87.8454 87.7522 88.069 87.0156 87.8123 86.3951L87.7445 86.2542L80.408 72.9753C79.7163 73.5078 78.972 73.97 78.1851 74.3519ZM83.0963 62.0996C83.0963 56.1453 78.4591 51.2996 72.7613 51.2996C67.0635 51.2996 62.4263 56.1453 62.4263 62.0996C62.4263 68.0535 67.0637 72.8996 72.7613 72.8996C78.4589 72.8996 83.0963 68.0535 83.0963 62.0996Z" fill="#E1000F"/>
<path d="M92.1307 24.1418C92.0561 23.4704 91.5101 22.9492 90.8476 22.9492H21.0863L20.9356 22.9583C20.2931 23.0363 19.7944 23.6069 19.7944 24.2992V86.3992L19.8031 86.5567C19.8778 87.2281 20.4238 87.7492 21.0863 87.7492H75.3451L75.4957 87.7401C76.1382 87.6622 76.6369 87.0916 76.6369 86.3992L76.6282 86.2418C76.5536 85.5704 76.0076 85.0492 75.3451 85.0492H22.3782V36.4492H70.1776L70.3282 36.4401C70.9707 36.3622 71.4694 35.7915 71.4694 35.0992C71.4694 34.3536 70.891 33.7492 70.1776 33.7492H22.3782V25.6492H89.5557V33.7492H77.9288L77.7781 33.7583C77.1357 33.8363 76.6369 34.4069 76.6369 35.0992C76.6369 35.8448 77.2153 36.4492 77.9288 36.4492H89.5557V75.5992L89.5644 75.7567C89.639 76.4281 90.185 76.9492 90.8476 76.9492C91.561 76.9492 92.1394 76.3448 92.1394 75.5992V24.2992L92.1307 24.1418Z" fill="#000091"/>
<path d="M26.2538 31.0492C25.5415 31.0492 24.9619 30.4436 24.9619 29.6992C24.9619 28.9548 25.5415 28.3492 26.2538 28.3492C26.9661 28.3492 27.5457 28.9548 27.5457 29.6992C27.5457 30.4436 26.9661 31.0492 26.2538 31.0492Z" fill="#000091"/>
<path d="M30.1294 29.6992C30.1294 30.4436 30.709 31.0492 31.4213 31.0492C32.1336 31.0492 32.7132 30.4436 32.7132 29.6992C32.7132 28.9548 32.1336 28.3492 31.4213 28.3492C30.709 28.3492 30.1294 28.9548 30.1294 29.6992Z" fill="#000091"/>
<path d="M36.5888 31.0492C35.8765 31.0492 35.2969 30.4436 35.2969 29.6992C35.2969 28.9548 35.8765 28.3492 36.5888 28.3492C37.3011 28.3492 37.8807 28.9548 37.8807 29.6992C37.8807 30.4436 37.3011 31.0492 36.5888 31.0492Z" fill="#000091"/>
<path d="M85.6801 28.3492C86.3935 28.3492 86.9719 28.9536 86.9719 29.6992C86.9719 30.3915 86.4732 30.9622 85.8307 31.0401L85.6801 31.0492H46.9238C46.2103 31.0492 45.6319 30.4448 45.6319 29.6992C45.6319 29.0069 46.1306 28.4363 46.7731 28.3583L46.9238 28.3492H85.6801Z" fill="#000091"/>
<path d="M55.9669 45.8992C55.9669 45.1536 55.3885 44.5492 54.6751 44.5492H31.4213L31.2706 44.5583C30.6281 44.6363 30.1294 45.2069 30.1294 45.8992C30.1294 46.6448 30.7078 47.2492 31.4213 47.2492H54.6751L54.8257 47.2401C55.4682 47.1622 55.9669 46.5915 55.9669 45.8992Z" fill="#000091"/>
<path d="M49.5076 52.6492C50.221 52.6492 50.7994 53.2536 50.7994 53.9992C50.7994 54.6915 50.3007 55.2622 49.6582 55.3401L49.5076 55.3492H31.4213C30.7078 55.3492 30.1294 54.7448 30.1294 53.9992C30.1294 53.3069 30.6281 52.7363 31.2706 52.6583L31.4213 52.6492H49.5076Z" fill="#000091"/>
<path d="M48.2157 62.0992C48.2157 61.3536 47.6373 60.7492 46.9238 60.7492H31.4213L31.2706 60.7583C30.6281 60.8363 30.1294 61.4069 30.1294 62.0992C30.1294 62.8448 30.7078 63.4492 31.4213 63.4492H46.9238L47.0745 63.4401C47.717 63.3622 48.2157 62.7915 48.2157 62.0992Z" fill="#000091"/>
</svg>
